<svg width="50" height="50" viewBox="0 0 50 50" fill="none" xmlns="http://www.w3.org/2000/svg">
<path d="M25 0L26.2036 18.5615L34.031 1.68819L28.4481 19.4311L41.8424 6.52478L30.227 21.0527L47.3791 13.8565L31.3 23.2075L49.8934 22.6933L31.5221 25.6044L49.0456 31.8416L30.8633 27.9196L44.9504 40.0659L29.4127 29.8405L38.1608 46.2554L27.3661 31.1077L29.5937 49.5743L25 31.55L20.4063 49.5743L22.6339 31.1077L11.8392 46.2554L20.5873 29.8405L5.04957 40.0659L19.1367 27.9196L0.954359 31.8416L18.4779 25.6044L0.106646 22.6933L18.7 23.2075L2.62092 13.8565L19.773 21.0527L8.15761 6.52478L21.5519 19.4311L15.969 1.68819L23.7964 18.5615L25 0Z" fill="#6F7200"/>
</svg>
